{"accessors":[{"bufferView":2,"componentType":5126,"count":4,"max":[2.4521355628967285,0.558020830154419,1.560410976409912],"min":[-0.17389845848083496,-2.022372007369995,-0.3145500421524048],"type":"VEC3"},{"bufferView":2,"byteOffset":48,"componentType":5126,"count":4,"max":[0.6528363227844238,-0.671125054359436,0.35127773880958557],"min":[0.6528363227844238,-0.671125054359436,0.35127773880958557],"type":"VEC3"},{"bufferView":1,"componentType":5126,"count":4,"max":[0.9330390095710754,0.9999249577522278],"min":[0.2206847369670868,0.0000750124454498291],"type":"VEC2"},{"bufferView":0,"componentType":5125,"count":6,"type":"SCALAR"},{"bufferView":2,"byteOffset":96,"componentType":5126,"count":178,"max":[1.2445321083068848,2.264707088470459,0.49777865409851074],"min":[-1.2445321083068848,-0.769010066986084,-0.7095407247543335],"type":"VEC3"},{"bufferView":2,"byteOffset":2232,"componentType":5126,"count":178,"max":[0.9925981760025024,1,0.9995352029800415],"min":[-0.9925981760025024,-1,-0.9999725818634033],"type":"VEC3"},{"bufferView":1,"byteOffset":32,"componentType":5126,"count":178,"max":[0.918815553188324,0.8070172071456909],"min":[0.10813041031360626,0.07596713304519653],"type":"VEC2"},{"bufferView":0,"byteOffset":24,"componentType":5125,"count":1056,"type":"SCALAR"}],"asset":{"extras":{"author":"Wednesday Frog (https://sketchfab.com/wednesdayfrog)","license":"CC-BY-NC-4.0 (http://creativecommons.org/licenses/by-nc/4.0/)","source":"https://sketchfab.com/3d-models/it-is-wednesday-my-dudes-4769657ee539471a8a58bb26be7e2437","title":"It is wednesday my dudes"},"generator":"Sketchfab-12.67.0","version":"2.0"},"bufferViews":[{"buffer":0,"byteLength":4248,"name":"floatBufferViews","target":34963},{"buffer":0,"byteLength":1456,"byteOffset":4248,"byteStride":8,"name":"floatBufferViews","target":34962},{"buffer":0,"byteLength":4368,"byteOffset":5704,"byteStride":12,"name":"floatBufferViews","target":34962}],"buffers":[{"byteLength":10072,"uri":"data:application/octet-stream;base64,"}],"extensionsUsed":["KHR_materials_unlit"],"images":[{"uri":"data:application/octet-stream;base64,"},{"uri":"data:application/octet-stream;base64,"}],"materials":[{"alphaMode":"BLEND","doubleSided":true,"extensions":{"KHR_materials_unlit":{}},"name":"Material","pbrMetallicRoughness":{"baseColorTexture":{"index":0},"metallicFactor":0}},{"alphaMode":"BLEND","doubleSided":true,"extensions":{"KHR_materials_unlit":{}},"name":"null","pbrMetallicRoughness":{"baseColorTexture":{"index":1},"metallicFactor":0}}],"meshes":[{"name":"Plane_Material_0","primitives":[{"attributes":{"NORMAL":1,"POSITION":0,"TEXCOORD_0":2},"indices":3,"material":0,"mode":4}]},{"name":"Plane_(null)_0","primitives":[{"attributes":{"NORMAL":5,"POSITION":4,"TEXCOORD_0":6},"indices":7,"material":1,"mode":4}]}],"nodes":[{"children":[1],"matrix":[1,0,0,0,0,2.220446049250313e-16,-1,0,0,1,2.220446049250313e-16,0,0,0,0,1],"name":"Sketchfab_model"},{"children":[2],"matrix":[1,0,0,0,0,0,1,0,0,-1,0,0,0,0,0,1],"name":"a7d78abdfe5e4c95b23f6f32bb2fdced.fbx"},{"children":[3],"name":"RootNode"},{"children":[4,5],"matrix":[100,0,0,0,0,-0.00001629206793918314,-99.99999999999868,0,0,99.99999999999868,-0.00001629206793918314,0,0,51.24700164794922,154.36048889160156,1],"name":"Plane"},{"mesh":0,"name":"Plane_Material_0"},{"mesh":1,"name":"Plane_(null)_0"}],"samplers":[{"magFilter":9729,"minFilter":9987,"wrapS":10497,"wrapT":10497}],"scene":0,"scenes":[{"name":"Sketchfab_Scene","nodes":[0]}],"textures":[{"sampler":0,"source":0},{"sampler":0,"source":1}]}